<?xml version="1.0" standalone="no"?>
<!DOCTYPE svg PUBLIC "-//W3C//DTD SVG 20010904//EN"
 "http://www.w3.org/TR/2001/REC-SVG-20010904/DTD/svg10.dtd">
<svg version="1.0" xmlns="http://www.w3.org/2000/svg"
 width="512.000000pt" height="512.000000pt" viewBox="0 0 512.000000 512.000000"
 preserveAspectRatio="xMidYMid meet">

<g transform="translate(0.000000,512.000000) scale(0.100000,-0.100000)"
fill="#b0ca87" stroke="none">
<path d="M2375 4798 c-328 -33 -703 -165 -980 -346 -409 -266 -730 -674 -890
-1132 -34 -98 -85 -288 -85 -318 0 -10 29 -12 126 -10 l126 3 23 90 c34 130
69 224 135 360 298 616 897 1035 1579 1104 960 98 1864 -531 2106 -1464 l23
-90 126 -3 c97 -2 126 0 126 10 0 30 -51 220 -85 318 -105 299 -276 576 -500
809 -472 490 -1149 738 -1830 669z"/>
<path d="M1906 3928 c-3 -18 -24 -215 -46 -438 -22 -223 -43 -426 -46 -452
l-6 -48 226 0 c124 0 226 3 227 8 0 4 13 124 27 267 l27 260 560 3 559 2 28
27 28 27 0 159 0 159 -29 29 -29 29 -761 0 -760 0 -5 -32z"/>
<path d="M250 2611 l0 -301 50 0 50 0 0 90 0 90 83 0 82 -1 60 -89 60 -89 58
-1 c31 0 57 3 57 6 0 3 -29 47 -65 98 l-64 93 37 24 c56 37 84 99 80 180 -4
85 -36 137 -105 170 -43 22 -64 24 -215 27 l-168 4 0 -301z m309 201 c49 -24
74 -62 74 -112 0 -88 -63 -130 -195 -130 l-88 0 0 130 0 130 88 0 c63 0 96 -5
121 -18z"/>
<path d="M960 2610 l0 -300 220 0 220 0 0 40 0 40 -170 0 -170 0 0 90 0 90
150 0 150 0 0 40 0 40 -150 0 -150 0 0 90 0 90 165 0 165 0 0 40 0 40 -215 0
-215 0 0 -300z"/>
<path d="M1667 2628 c-69 -156 -129 -291 -132 -300 -6 -16 0 -18 48 -18 l54 0
31 73 30 72 147 0 147 0 30 -72 31 -73 53 0 c30 0 54 3 54 8 0 4 -59 139 -131
300 l-132 292 -52 0 -52 0 -126 -282z m237 33 c25 -58 46 -108 46 -113 0 -4
-47 -8 -105 -8 -58 0 -105 3 -105 6 0 3 16 42 36 87 20 45 43 97 51 116 8 18
18 30 22 25 5 -5 29 -56 55 -113z"/>
<path d="M2415 2898 c-75 -27 -115 -82 -115 -158 0 -50 20 -92 57 -118 16 -11
78 -34 138 -52 62 -17 120 -40 133 -52 47 -45 13 -111 -67 -129 -50 -11 -119
3 -180 37 -57 31 -64 31 -84 -11 -16 -34 -16 -34 11 -53 67 -48 228 -68 327
-41 81 23 134 111 115 193 -17 75 -67 106 -238 146 -69 16 -117 59 -108 98 9
35 38 59 87 72 43 12 97 2 161 -31 20 -10 41 -19 46 -19 5 0 14 19 21 41 15
49 13 51 -63 74 -57 17 -196 19 -241 3z"/>
<path d="M3093 2890 c-63 -26 -128 -87 -156 -148 -31 -66 -31 -198 0 -264 29
-64 93 -123 161 -149 48 -17 73 -20 152 -17 102 4 145 20 210 75 89 74 117
240 61 358 -30 64 -67 102 -135 137 -61 32 -221 36 -293 8z m194 -65 c34 -10
65 -29 92 -56 38 -39 71 -112 71 -159 0 -47 -33 -120 -71 -159 -137 -137 -359
-38 -359 159 0 121 78 205 211 229 3 1 28 -6 56 -14z"/>
<path d="M3770 2610 l0 -300 50 0 50 0 0 200 c0 110 3 200 8 199 4 0 78 -90
165 -200 l159 -199 44 0 44 0 0 300 0 300 -50 0 -50 0 -2 -206 -3 -206 -163
206 -163 206 -45 0 -44 0 0 -300z"/>
<path d="M4625 2898 c-75 -27 -115 -82 -115 -158 0 -50 20 -92 57 -118 16 -11
78 -34 138 -52 62 -17 120 -40 133 -52 47 -45 13 -111 -67 -129 -50 -11 -119
3 -180 37 -57 31 -64 31 -84 -11 -16 -34 -16 -34 11 -53 67 -48 228 -68 327
-41 81 23 134 111 115 193 -17 75 -67 106 -238 146 -69 16 -117 59 -108 98 9
35 38 59 87 72 43 12 97 2 161 -31 20 -10 41 -19 46 -19 5 0 14 19 21 41 15
49 13 51 -63 74 -57 17 -196 19 -241 3z"/>
<path d="M410 2224 c0 -9 12 -68 26 -131 147 -659 597 -1221 1211 -1515 770
-369 1689 -261 2358 279 320 258 569 614 703 1005 37 107 92 323 92 362 0 14
-16 16 -124 16 l-125 0 -17 -77 c-92 -425 -344 -833 -684 -1109 -911 -740
-2251 -529 -2900 456 -120 183 -228 439 -274 653 l-17 77 -125 0 c-108 0 -124
-2 -124 -16z"/>
<path d="M3124 2224 c20 -53 28 -115 24 -197 -5 -114 -34 -182 -108 -251 -103
-97 -237 -136 -462 -136 -265 0 -502 73 -682 210 -112 84 -122 79 -242 -128
l-97 -166 29 -23 c280 -232 654 -346 1074 -330 300 12 517 86 699 237 110 91
206 249 246 400 19 76 31 263 21 344 l-7 56 -251 0 c-227 0 -250 -2 -244 -16z"/>
</g>
</svg>
